<svg xmlns="http://www.w3.org/2000/svg" xmlns:xlink="http://www.w3.org/1999/xlink" width="50" zoomAndPan="magnify" viewBox="0 0 37.5 37.499999" height="50" preserveAspectRatio="xMidYMid meet" version="1.0"><defs><filter x="0%" y="0%" width="100%" height="100%" id="e367e662df"><feColorMatrix values="0 0 0 0 1 0 0 0 0 1 0 0 0 0 1 0 0 0 1 0" color-interpolation-filters="sRGB"/></filter><mask id="537f6375d0"><g filter="url(#e367e662df)"><rect x="-3.75" width="45" fill="#000000" y="-3.75" height="44.999999" fill-opacity="0.32"/></g></mask><clipPath id="09649f81f1"><path d="M 0.628906 0.917969 L 20.171875 0.917969 L 20.171875 14 L 0.628906 14 Z M 0.628906 0.917969 " clip-rule="nonzero"/></clipPath><clipPath id="5e9fcb5c05"><path d="M 5 9 L 16 9 L 16 18.191406 L 5 18.191406 Z M 5 9 " clip-rule="nonzero"/></clipPath><clipPath id="517420bc35"><rect x="0" width="21" y="0" height="19"/></clipPath><clipPath id="846b70320b"><path d="M 9 22 L 28 22 L 28 35.105469 L 9 35.105469 Z M 9 22 " clip-rule="nonzero"/></clipPath><clipPath id="91f70af904"><path d="M 6.511719 19 L 16 19 L 16 24 L 6.511719 24 Z M 6.511719 19 " clip-rule="nonzero"/></clipPath><clipPath id="4067261446"><path d="M 21 19 L 30.601562 19 L 30.601562 24 L 21 24 Z M 21 19 " clip-rule="nonzero"/></clipPath><clipPath id="b1e0d731bc"><path d="M 14 13.742188 L 23 13.742188 L 23 22 L 14 22 Z M 14 13.742188 " clip-rule="nonzero"/></clipPath></defs><g mask="url(#537f6375d0)"><g transform="matrix(1, 0, 0, 1, 8, 1)"><g clip-path="url(#517420bc35)"><g clip-path="url(#09649f81f1)"><path fill="#0cc0df" d="M 16.582031 5.460938 C 16.210938 3.789062 14.714844 2.566406 12.96875 2.566406 C 12.5625 2.566406 12.160156 2.632812 11.777344 2.765625 C 10.96875 1.617188 9.644531 0.917969 8.238281 0.917969 C 5.855469 0.917969 3.917969 2.859375 3.917969 5.238281 C 3.917969 5.335938 3.921875 5.429688 3.929688 5.523438 C 2.019531 5.90625 0.628906 7.570312 0.628906 9.558594 C 0.628906 11.660156 2.199219 13.417969 4.285156 13.644531 C 4.300781 13.648438 4.316406 13.648438 4.332031 13.648438 C 4.539062 13.648438 4.71875 13.492188 4.738281 13.28125 C 4.765625 13.054688 4.601562 12.851562 4.375 12.828125 C 2.707031 12.644531 1.453125 11.242188 1.453125 9.558594 C 1.453125 7.855469 2.730469 6.445312 4.429688 6.28125 C 4.542969 6.269531 4.648438 6.210938 4.714844 6.121094 C 4.785156 6.027344 4.8125 5.914062 4.792969 5.800781 C 4.757812 5.609375 4.742188 5.425781 4.742188 5.238281 C 4.742188 3.3125 6.3125 1.742188 8.238281 1.742188 C 9.472656 1.742188 10.628906 2.410156 11.257812 3.480469 C 11.363281 3.664062 11.589844 3.734375 11.785156 3.648438 C 12.160156 3.476562 12.558594 3.386719 12.96875 3.386719 C 14.417969 3.386719 15.644531 4.46875 15.824219 5.90625 C 15.851562 6.113281 16.054688 6.265625 16.261719 6.265625 C 18.074219 6.265625 19.550781 7.742188 19.550781 9.558594 C 19.550781 11.105469 18.457031 12.457031 16.949219 12.777344 C 16.726562 12.824219 16.585938 13.042969 16.632812 13.261719 C 16.679688 13.484375 16.894531 13.628906 17.121094 13.582031 C 19.007812 13.183594 20.375 11.492188 20.375 9.558594 C 20.375 7.40625 18.714844 5.632812 16.582031 5.460938 Z M 16.582031 5.460938 " fill-opacity="1" fill-rule="nonzero"/></g><g clip-path="url(#5e9fcb5c05)"><path fill="#0cc0df" d="M 14.617188 12.4375 L 14.617188 12.027344 C 14.617188 11.347656 14.0625 10.792969 13.382812 10.792969 L 10.019531 10.792969 C 9.910156 10.792969 9.804688 10.75 9.730469 10.671875 L 9.386719 10.332031 C 9.15625 10.097656 8.84375 9.96875 8.515625 9.96875 L 6.800781 9.96875 C 6.117188 9.96875 5.566406 10.523438 5.566406 11.203125 L 5.566406 16.933594 L 5.570312 16.929688 C 5.5625 17.199219 5.636719 17.460938 5.800781 17.683594 C 6.035156 18.011719 6.398438 18.199219 6.800781 18.199219 L 13.519531 18.199219 C 14.050781 18.199219 14.519531 17.859375 14.6875 17.355469 L 15.785156 14.0625 C 15.914062 13.683594 15.851562 13.277344 15.617188 12.949219 C 15.382812 12.625 15.015625 12.4375 14.617188 12.4375 Z M 6.800781 10.792969 L 8.515625 10.792969 C 8.625 10.792969 8.730469 10.835938 8.804688 10.914062 L 9.148438 11.253906 C 9.378906 11.488281 9.691406 11.617188 10.019531 11.617188 L 13.382812 11.617188 C 13.609375 11.617188 13.792969 11.800781 13.792969 12.027344 L 13.792969 12.4375 L 7.898438 12.4375 C 7.363281 12.4375 6.894531 12.777344 6.726562 13.28125 L 6.386719 14.296875 L 6.386719 11.203125 C 6.386719 10.976562 6.574219 10.792969 6.800781 10.792969 Z M 15.003906 13.804688 L 13.910156 17.09375 C 13.851562 17.261719 13.695312 17.375 13.519531 17.375 L 6.800781 17.375 C 6.667969 17.375 6.542969 17.3125 6.464844 17.203125 C 6.386719 17.09375 6.367188 16.960938 6.410156 16.832031 L 7.507812 13.542969 C 7.5625 13.375 7.71875 13.261719 7.898438 13.261719 L 14.613281 13.261719 C 14.75 13.261719 14.871094 13.324219 14.949219 13.433594 C 15.027344 13.539062 15.046875 13.675781 15.003906 13.804688 Z M 15.003906 13.804688 " fill-opacity="1" fill-rule="nonzero"/></g></g></g></g><g clip-path="url(#846b70320b)"><path fill="#ff5757" d="M 27.871094 35.0625 L 9.128906 35.0625 L 9.128906 22.429688 L 27.871094 22.429688 Z M 9.851562 34.335938 L 27.148438 34.335938 L 27.148438 23.152344 L 9.851562 23.152344 Z M 9.851562 34.335938 " fill-opacity="1" fill-rule="nonzero"/></g><path fill="#ff5757" d="M 14.382812 22.792969 L 15.109375 22.792969 L 15.109375 34.699219 L 14.382812 34.699219 Z M 14.382812 22.792969 " fill-opacity="1" fill-rule="nonzero"/><g clip-path="url(#91f70af904)"><path fill="#ff5757" d="M 14.457031 23.007812 L 12.3125 20.148438 L 7.960938 20.148438 L 9.777344 22.574219 L 9.199219 23.007812 L 6.511719 19.425781 L 12.671875 19.425781 L 15.035156 22.574219 Z M 14.457031 23.007812 " fill-opacity="1" fill-rule="nonzero"/></g><g clip-path="url(#4067261446)"><path fill="#ff5757" d="M 27.800781 23.007812 L 27.21875 22.574219 L 29.039062 20.148438 L 24.6875 20.148438 L 22.542969 23.007812 L 21.964844 22.574219 L 24.324219 19.425781 L 30.488281 19.425781 Z M 27.800781 23.007812 " fill-opacity="1" fill-rule="nonzero"/></g><g clip-path="url(#b1e0d731bc)"><path fill="#ff5757" d="M 18.5 21.820312 L 14.40625 17.726562 L 16.675781 17.726562 L 16.675781 13.777344 L 20.324219 13.777344 L 20.324219 17.726562 L 22.59375 17.726562 Z M 16.15625 18.453125 L 18.5 20.796875 L 20.84375 18.453125 L 19.601562 18.453125 L 19.601562 14.5 L 17.398438 14.5 L 17.398438 18.453125 Z M 16.15625 18.453125 " fill-opacity="1" fill-rule="nonzero"/></g><path fill="#ff5757" d="M 16.488281 24.359375 L 17.292969 24.359375 L 17.292969 25.085938 L 16.488281 25.085938 Z M 16.488281 24.359375 " fill-opacity="1" fill-rule="nonzero"/><path fill="#ff5757" d="M 18.097656 24.359375 L 18.902344 24.359375 L 18.902344 25.085938 L 18.097656 25.085938 Z M 18.097656 24.359375 " fill-opacity="1" fill-rule="nonzero"/><path fill="#ff5757" d="M 19.707031 24.359375 L 20.511719 24.359375 L 20.511719 25.085938 L 19.707031 25.085938 Z M 19.707031 24.359375 " fill-opacity="1" fill-rule="nonzero"/><path fill="#ff5757" d="M 21.476562 32.726562 L 26.304688 32.726562 L 26.304688 33.453125 L 21.476562 33.453125 Z M 21.476562 32.726562 " fill-opacity="1" fill-rule="nonzero"/><path fill="#ff5757" d="M 21.476562 31.117188 L 23.890625 31.117188 L 23.890625 31.84375 L 21.476562 31.84375 Z M 21.476562 31.117188 " fill-opacity="1" fill-rule="nonzero"/></svg>